<svg id="svg" xmlns="http://www.w3.org/2000/svg" xmlns:xlink="http://www.w3.org/1999/xlink" width="400" height="400" viewBox="0, 0, 400,400"><g id="svgg"><path id="path0" d="M118.817 101.145 C 114.249 106.193,110.266 106.716,86.639 105.368 C 24.653 101.834,-6.842 156.106,31.923 199.653 C 36.612 204.921,37.355 207.392,34.551 208.392 C 21.870 212.913,18.611 236.262,28.982 248.290 C 36.352 256.838,36.749 256.917,69.450 256.296 C 102.475 255.669,113.846 258.125,113.846 265.885 C 113.846 283.234,70.939 286.227,48.750 270.427 L 40.521 264.567 29.491 277.453 C 14.920 294.476,15.357 296.228,36.539 305.734 C 87.674 328.682,150.824 306.790,150.712 266.154 C 150.627 235.114,133.298 223.264,91.538 225.691 C 74.540 226.679,61.538 226.236,61.538 224.668 C 61.538 219.819,67.053 218.218,86.844 217.320 C 128.952 215.409,154.159 177.328,139.043 138.462 C 136.516 131.964,137.273 129.772,143.914 124.349 L 151.777 117.930 139.735 106.740 C 125.656 93.659,125.605 93.645,118.817 101.145 M212.985 110.792 C 204.341 116.062,202.637 116.281,201.117 112.319 C 199.872 109.074,194.846 107.692,184.286 107.692 L 169.231 107.692 169.231 183.077 L 169.231 258.462 189.231 258.462 L 209.231 258.462 209.231 203.300 L 209.231 148.139 217.338 141.762 C 221.797 138.254,228.533 135.385,232.308 135.385 C 236.082 135.385,242.818 138.254,247.277 141.762 L 255.385 148.139 255.385 203.300 L 255.385 258.462 273.846 258.462 L 292.308 258.462 292.308 206.405 C 292.308 148.087,292.667 146.179,304.835 139.886 C 334.203 124.700,341.538 137.608,341.538 204.476 L 341.538 258.462 360.000 258.462 L 378.462 258.462 378.457 199.231 C 378.451 132.699,376.450 124.435,357.237 111.600 C 343.231 102.243,312.883 101.842,295.358 110.783 L 283.270 116.950 273.173 110.794 C 259.120 102.226,227.036 102.224,212.985 110.792 M94.456 140.004 C 109.107 150.265,105.729 177.782,88.967 184.725 C 64.454 194.878,43.935 161.939,62.937 142.937 C 71.576 134.299,84.583 133.088,94.456 140.004 " stroke="none" fill="#ffffff" fill-rule="evenodd"></path></g></svg>
